<mxfile host="app.diagrams.net" modified="2024-02-23T20:00:44.456Z" agent="Mozilla/5.0 (X11; Linux x86_64) AppleWebKit/537.36 (KHTML, like Gecko) Chrome/122.0.0.0 Safari/537.36" etag="Ob-BsLEhW2C-lCEaO2eH" version="23.1.6" type="google">
  <diagram name="Page-1" id="2YBvvXClWsGukQMizWep">
    <mxGraphModel grid="1" page="1" gridSize="10" guides="1" tooltips="1" connect="1" arrows="1" fold="1" pageScale="1" pageWidth="1100" pageHeight="850" math="0" shadow="0">
      <root>
        <mxCell id="0" />
        <mxCell id="1" parent="0" />
        <mxCell id="aM9ryv3xv72pqoxQDRHE-1" value="Super Admin" style="shape=umlLifeline;perimeter=lifelinePerimeter;whiteSpace=wrap;html=1;container=0;dropTarget=0;collapsible=0;recursiveResize=0;outlineConnect=0;portConstraint=eastwest;newEdgeStyle={&quot;edgeStyle&quot;:&quot;elbowEdgeStyle&quot;,&quot;elbow&quot;:&quot;vertical&quot;,&quot;curved&quot;:0,&quot;rounded&quot;:0};" vertex="1" parent="1">
          <mxGeometry x="40" y="80" width="100" height="330" as="geometry" />
        </mxCell>
        <mxCell id="7yFjUxtBwj-3cxcYh-Si-13" value="" style="html=1;points=[[0,0,0,0,5],[0,1,0,0,-5],[1,0,0,0,5],[1,1,0,0,-5]];perimeter=orthogonalPerimeter;outlineConnect=0;targetShapes=umlLifeline;portConstraint=eastwest;newEdgeStyle={&quot;curved&quot;:0,&quot;rounded&quot;:0};" vertex="1" parent="aM9ryv3xv72pqoxQDRHE-1">
          <mxGeometry x="45" y="80" width="10" height="200" as="geometry" />
        </mxCell>
        <mxCell id="7yFjUxtBwj-3cxcYh-Si-1" value="System" style="shape=umlLifeline;perimeter=lifelinePerimeter;whiteSpace=wrap;html=1;container=0;dropTarget=0;collapsible=0;recursiveResize=0;outlineConnect=0;portConstraint=eastwest;newEdgeStyle={&quot;edgeStyle&quot;:&quot;elbowEdgeStyle&quot;,&quot;elbow&quot;:&quot;vertical&quot;,&quot;curved&quot;:0,&quot;rounded&quot;:0};" vertex="1" parent="1">
          <mxGeometry x="410" y="80" width="100" height="330" as="geometry" />
        </mxCell>
        <mxCell id="ftI4ms1ctnyEOGsI6bik-2" value="" style="html=1;points=[[0,0,0,0,5],[0,1,0,0,-5],[1,0,0,0,5],[1,1,0,0,-5]];perimeter=orthogonalPerimeter;outlineConnect=0;targetShapes=umlLifeline;portConstraint=eastwest;newEdgeStyle={&quot;curved&quot;:0,&quot;rounded&quot;:0};" vertex="1" parent="7yFjUxtBwj-3cxcYh-Si-1">
          <mxGeometry x="45" y="90" width="10" height="80" as="geometry" />
        </mxCell>
        <mxCell id="7yFjUxtBwj-3cxcYh-Si-5" value="Web Scraper" style="shape=umlLifeline;perimeter=lifelinePerimeter;whiteSpace=wrap;html=1;container=0;dropTarget=0;collapsible=0;recursiveResize=0;outlineConnect=0;portConstraint=eastwest;newEdgeStyle={&quot;edgeStyle&quot;:&quot;elbowEdgeStyle&quot;,&quot;elbow&quot;:&quot;vertical&quot;,&quot;curved&quot;:0,&quot;rounded&quot;:0};" vertex="1" parent="1">
          <mxGeometry x="680" y="80" width="100" height="330" as="geometry" />
        </mxCell>
        <mxCell id="ftI4ms1ctnyEOGsI6bik-5" value="" style="html=1;points=[[0,0,0,0,5],[0,1,0,0,-5],[1,0,0,0,5],[1,1,0,0,-5]];perimeter=orthogonalPerimeter;outlineConnect=0;targetShapes=umlLifeline;portConstraint=eastwest;newEdgeStyle={&quot;curved&quot;:0,&quot;rounded&quot;:0};" vertex="1" parent="7yFjUxtBwj-3cxcYh-Si-5">
          <mxGeometry x="45" y="100" width="10" height="50" as="geometry" />
        </mxCell>
        <mxCell id="Mf5ZFVlwaRFB3JU3a7bH-75" value="Super Admin" style="shape=umlLifeline;perimeter=lifelinePerimeter;whiteSpace=wrap;html=1;container=0;dropTarget=0;collapsible=0;recursiveResize=0;outlineConnect=0;portConstraint=eastwest;newEdgeStyle={&quot;edgeStyle&quot;:&quot;elbowEdgeStyle&quot;,&quot;elbow&quot;:&quot;vertical&quot;,&quot;curved&quot;:0,&quot;rounded&quot;:0};" vertex="1" parent="1">
          <mxGeometry x="40" y="500" width="100" height="330" as="geometry" />
        </mxCell>
        <mxCell id="Mf5ZFVlwaRFB3JU3a7bH-76" value="" style="html=1;points=[[0,0,0,0,5],[0,1,0,0,-5],[1,0,0,0,5],[1,1,0,0,-5]];perimeter=orthogonalPerimeter;outlineConnect=0;targetShapes=umlLifeline;portConstraint=eastwest;newEdgeStyle={&quot;curved&quot;:0,&quot;rounded&quot;:0};" vertex="1" parent="Mf5ZFVlwaRFB3JU3a7bH-75">
          <mxGeometry x="45" y="55" width="10" height="220" as="geometry" />
        </mxCell>
        <mxCell id="Mf5ZFVlwaRFB3JU3a7bH-80" value="System" style="shape=umlLifeline;perimeter=lifelinePerimeter;whiteSpace=wrap;html=1;container=0;dropTarget=0;collapsible=0;recursiveResize=0;outlineConnect=0;portConstraint=eastwest;newEdgeStyle={&quot;edgeStyle&quot;:&quot;elbowEdgeStyle&quot;,&quot;elbow&quot;:&quot;vertical&quot;,&quot;curved&quot;:0,&quot;rounded&quot;:0};" vertex="1" parent="1">
          <mxGeometry x="350" y="500" width="100" height="330" as="geometry" />
        </mxCell>
        <mxCell id="Mf5ZFVlwaRFB3JU3a7bH-111" value="" style="html=1;points=[[0,0,0,0,5],[0,1,0,0,-5],[1,0,0,0,5],[1,1,0,0,-5]];perimeter=orthogonalPerimeter;outlineConnect=0;targetShapes=umlLifeline;portConstraint=eastwest;newEdgeStyle={&quot;curved&quot;:0,&quot;rounded&quot;:0};" vertex="1" parent="Mf5ZFVlwaRFB3JU3a7bH-80">
          <mxGeometry x="45" y="60" width="10" height="230" as="geometry" />
        </mxCell>
        <mxCell id="Mf5ZFVlwaRFB3JU3a7bH-83" value="Database" style="shape=umlLifeline;perimeter=lifelinePerimeter;whiteSpace=wrap;html=1;container=0;dropTarget=0;collapsible=0;recursiveResize=0;outlineConnect=0;portConstraint=eastwest;newEdgeStyle={&quot;edgeStyle&quot;:&quot;elbowEdgeStyle&quot;,&quot;elbow&quot;:&quot;vertical&quot;,&quot;curved&quot;:0,&quot;rounded&quot;:0};" vertex="1" parent="1">
          <mxGeometry x="650" y="500" width="100" height="330" as="geometry" />
        </mxCell>
        <mxCell id="Mf5ZFVlwaRFB3JU3a7bH-108" value="" style="html=1;points=[[0,0,0,0,5],[0,1,0,0,-5],[1,0,0,0,5],[1,1,0,0,-5]];perimeter=orthogonalPerimeter;outlineConnect=0;targetShapes=umlLifeline;portConstraint=eastwest;newEdgeStyle={&quot;curved&quot;:0,&quot;rounded&quot;:0};" vertex="1" parent="Mf5ZFVlwaRFB3JU3a7bH-83">
          <mxGeometry x="45" y="70" width="10" height="40" as="geometry" />
        </mxCell>
        <mxCell id="Mf5ZFVlwaRFB3JU3a7bH-131" value="" style="html=1;points=[[0,0,0,0,5],[0,1,0,0,-5],[1,0,0,0,5],[1,1,0,0,-5]];perimeter=orthogonalPerimeter;outlineConnect=0;targetShapes=umlLifeline;portConstraint=eastwest;newEdgeStyle={&quot;curved&quot;:0,&quot;rounded&quot;:0};" vertex="1" parent="Mf5ZFVlwaRFB3JU3a7bH-83">
          <mxGeometry x="45" y="230" width="10" height="40" as="geometry" />
        </mxCell>
        <mxCell id="Mf5ZFVlwaRFB3JU3a7bH-132" value="Set default status for selected form&lt;br&gt;Remove default status for other form" style="html=1;verticalAlign=bottom;endArrow=block;curved=0;rounded=0;exitX=1;exitY=0;exitDx=0;exitDy=5;exitPerimeter=0;" edge="1" parent="1" target="Mf5ZFVlwaRFB3JU3a7bH-83">
          <mxGeometry relative="1" as="geometry">
            <mxPoint x="405" y="730" as="sourcePoint" />
            <mxPoint x="645" y="730" as="targetPoint" />
          </mxGeometry>
        </mxCell>
        <mxCell id="RmO-ugyrdjQJpROaxNil-1" value="Generate Form:" style="text;html=1;align=center;verticalAlign=middle;resizable=0;points=[];autosize=1;strokeColor=none;fillColor=none;" vertex="1" parent="1">
          <mxGeometry x="35" y="18" width="110" height="30" as="geometry" />
        </mxCell>
        <mxCell id="RmO-ugyrdjQJpROaxNil-2" value="Search and assign default form:" style="text;html=1;align=center;verticalAlign=middle;resizable=0;points=[];autosize=1;strokeColor=none;fillColor=none;" vertex="1" parent="1">
          <mxGeometry x="35" y="450" width="190" height="30" as="geometry" />
        </mxCell>
        <mxCell id="ftI4ms1ctnyEOGsI6bik-1" value="Initiate Form generation" style="html=1;verticalAlign=bottom;endArrow=block;curved=0;rounded=0;" edge="1" parent="1" target="ftI4ms1ctnyEOGsI6bik-2">
          <mxGeometry width="80" relative="1" as="geometry">
            <mxPoint x="95" y="170" as="sourcePoint" />
            <mxPoint x="420" y="170" as="targetPoint" />
          </mxGeometry>
        </mxCell>
        <mxCell id="ftI4ms1ctnyEOGsI6bik-3" value="&lt;font style=&quot;font-size: 11px;&quot;&gt;Send Disease name&lt;/font&gt;" style="text;html=1;align=center;verticalAlign=middle;resizable=0;points=[];autosize=1;strokeColor=none;fillColor=none;" vertex="1" parent="1">
          <mxGeometry x="210" y="170" width="120" height="30" as="geometry" />
        </mxCell>
        <mxCell id="ftI4ms1ctnyEOGsI6bik-4" value="Initiate Form generation" style="html=1;verticalAlign=bottom;endArrow=block;curved=0;rounded=0;" edge="1" parent="1" target="7yFjUxtBwj-3cxcYh-Si-5">
          <mxGeometry width="80" relative="1" as="geometry">
            <mxPoint x="470" y="180" as="sourcePoint" />
            <mxPoint x="620" y="180" as="targetPoint" />
          </mxGeometry>
        </mxCell>
        <mxCell id="ftI4ms1ctnyEOGsI6bik-6" value="Extract and send info on the disease" style="html=1;verticalAlign=bottom;endArrow=block;curved=0;rounded=0;entryX=1.085;entryY=0.631;entryDx=0;entryDy=0;entryPerimeter=0;" edge="1" parent="1" source="ftI4ms1ctnyEOGsI6bik-5" target="ftI4ms1ctnyEOGsI6bik-2">
          <mxGeometry width="80" relative="1" as="geometry">
            <mxPoint x="640.27" y="220" as="sourcePoint" />
            <mxPoint x="460" y="220" as="targetPoint" />
          </mxGeometry>
        </mxCell>
        <mxCell id="ftI4ms1ctnyEOGsI6bik-7" value="Generate XML form" style="html=1;verticalAlign=bottom;endArrow=block;curved=0;rounded=0;entryX=0.998;entryY=0.069;entryDx=0;entryDy=0;entryPerimeter=0;" edge="1" parent="1" source="ftI4ms1ctnyEOGsI6bik-2" target="ftI4ms1ctnyEOGsI6bik-8">
          <mxGeometry width="80" relative="1" as="geometry">
            <mxPoint x="450" y="240" as="sourcePoint" />
            <mxPoint x="340" y="240" as="targetPoint" />
          </mxGeometry>
        </mxCell>
        <mxCell id="ftI4ms1ctnyEOGsI6bik-8" value="Form" style="shape=umlLifeline;perimeter=lifelinePerimeter;whiteSpace=wrap;html=1;container=1;dropTarget=0;collapsible=0;recursiveResize=0;outlineConnect=0;portConstraint=eastwest;newEdgeStyle={&quot;curved&quot;:0,&quot;rounded&quot;:0};" vertex="1" parent="1">
          <mxGeometry x="225" y="220" width="100" height="190" as="geometry" />
        </mxCell>
        <mxCell id="ftI4ms1ctnyEOGsI6bik-10" value="" style="html=1;points=[[0,0,0,0,5],[0,1,0,0,-5],[1,0,0,0,5],[1,1,0,0,-5]];perimeter=orthogonalPerimeter;outlineConnect=0;targetShapes=umlLifeline;portConstraint=eastwest;newEdgeStyle={&quot;curved&quot;:0,&quot;rounded&quot;:0};" vertex="1" parent="ftI4ms1ctnyEOGsI6bik-8">
          <mxGeometry x="45" y="60" width="10" height="80" as="geometry" />
        </mxCell>
        <mxCell id="ftI4ms1ctnyEOGsI6bik-9" value="Display editable form" style="html=1;verticalAlign=bottom;endArrow=block;curved=0;rounded=0;" edge="1" parent="1" target="7yFjUxtBwj-3cxcYh-Si-13">
          <mxGeometry width="80" relative="1" as="geometry">
            <mxPoint x="270" y="290" as="sourcePoint" />
            <mxPoint x="210" y="310" as="targetPoint" />
          </mxGeometry>
        </mxCell>
        <mxCell id="ftI4ms1ctnyEOGsI6bik-11" value="Update and save changes" style="html=1;verticalAlign=bottom;endArrow=block;curved=0;rounded=0;" edge="1" parent="1" source="7yFjUxtBwj-3cxcYh-Si-13">
          <mxGeometry width="80" relative="1" as="geometry">
            <mxPoint x="100" y="320" as="sourcePoint" />
            <mxPoint x="270" y="320" as="targetPoint" />
          </mxGeometry>
        </mxCell>
        <mxCell id="ftI4ms1ctnyEOGsI6bik-12" value="Save Form" style="html=1;verticalAlign=bottom;endArrow=block;curved=0;rounded=0;" edge="1" parent="1" target="ftI4ms1ctnyEOGsI6bik-13">
          <mxGeometry width="80" relative="1" as="geometry">
            <mxPoint x="280" y="330" as="sourcePoint" />
            <mxPoint x="460" y="330" as="targetPoint" />
          </mxGeometry>
        </mxCell>
        <mxCell id="ftI4ms1ctnyEOGsI6bik-13" value="" style="html=1;points=[[0,0,0,0,5],[0,1,0,0,-5],[1,0,0,0,5],[1,1,0,0,-5]];perimeter=orthogonalPerimeter;outlineConnect=0;targetShapes=umlLifeline;portConstraint=eastwest;newEdgeStyle={&quot;curved&quot;:0,&quot;rounded&quot;:0};" vertex="1" parent="1">
          <mxGeometry x="455" y="330" width="10" height="40" as="geometry" />
        </mxCell>
        <mxCell id="ftI4ms1ctnyEOGsI6bik-14" value="Save Form" style="html=1;verticalAlign=bottom;endArrow=block;curved=0;rounded=0;" edge="1" parent="1" target="ftI4ms1ctnyEOGsI6bik-18">
          <mxGeometry width="80" relative="1" as="geometry">
            <mxPoint x="465" y="340" as="sourcePoint" />
            <mxPoint x="610" y="340" as="targetPoint" />
          </mxGeometry>
        </mxCell>
        <mxCell id="ftI4ms1ctnyEOGsI6bik-15" value="Database" style="shape=umlLifeline;perimeter=lifelinePerimeter;whiteSpace=wrap;html=1;container=1;dropTarget=0;collapsible=0;recursiveResize=0;outlineConnect=0;portConstraint=eastwest;newEdgeStyle={&quot;curved&quot;:0,&quot;rounded&quot;:0};" vertex="1" parent="1">
          <mxGeometry x="900" y="80" width="100" height="330" as="geometry" />
        </mxCell>
        <mxCell id="ftI4ms1ctnyEOGsI6bik-18" value="" style="html=1;points=[[0,0,0,0,5],[0,1,0,0,-5],[1,0,0,0,5],[1,1,0,0,-5]];perimeter=orthogonalPerimeter;outlineConnect=0;targetShapes=umlLifeline;portConstraint=eastwest;newEdgeStyle={&quot;curved&quot;:0,&quot;rounded&quot;:0};" vertex="1" parent="ftI4ms1ctnyEOGsI6bik-15">
          <mxGeometry x="45" y="260" width="10" height="20" as="geometry" />
        </mxCell>
        <mxCell id="ftI4ms1ctnyEOGsI6bik-17" value="Initiate request for retrieving list of forms" style="html=1;verticalAlign=bottom;endArrow=block;curved=0;rounded=0;" edge="1" parent="1" source="Mf5ZFVlwaRFB3JU3a7bH-76">
          <mxGeometry relative="1" as="geometry">
            <mxPoint x="100" y="570" as="sourcePoint" />
            <mxPoint x="400" y="560" as="targetPoint" />
          </mxGeometry>
        </mxCell>
        <mxCell id="ftI4ms1ctnyEOGsI6bik-19" value="Retrieve list of available forms" style="html=1;verticalAlign=bottom;endArrow=block;curved=0;rounded=0;entryX=0.177;entryY=-0.011;entryDx=0;entryDy=0;entryPerimeter=0;" edge="1" parent="1" source="Mf5ZFVlwaRFB3JU3a7bH-111" target="Mf5ZFVlwaRFB3JU3a7bH-108">
          <mxGeometry relative="1" as="geometry">
            <mxPoint x="410" y="570" as="sourcePoint" />
            <mxPoint x="630" y="570" as="targetPoint" />
          </mxGeometry>
        </mxCell>
        <mxCell id="ftI4ms1ctnyEOGsI6bik-21" value="Return form details from table" style="html=1;verticalAlign=bottom;endArrow=open;dashed=1;endSize=8;curved=0;rounded=0;" edge="1" parent="1" target="Mf5ZFVlwaRFB3JU3a7bH-111">
          <mxGeometry relative="1" as="geometry">
            <mxPoint x="694" y="600" as="sourcePoint" />
            <mxPoint x="409" y="600" as="targetPoint" />
          </mxGeometry>
        </mxCell>
        <mxCell id="ftI4ms1ctnyEOGsI6bik-22" value="Display list of available forms" style="html=1;verticalAlign=bottom;endArrow=open;dashed=1;endSize=8;curved=0;rounded=0;" edge="1" parent="1">
          <mxGeometry relative="1" as="geometry">
            <mxPoint x="395" y="620" as="sourcePoint" />
            <mxPoint x="95" y="620" as="targetPoint" />
          </mxGeometry>
        </mxCell>
        <mxCell id="ftI4ms1ctnyEOGsI6bik-24" value="Send query to filter list" style="html=1;verticalAlign=bottom;endArrow=block;curved=0;rounded=0;exitX=1.285;exitY=0.393;exitDx=0;exitDy=0;exitPerimeter=0;" edge="1" parent="1">
          <mxGeometry width="80" relative="1" as="geometry">
            <mxPoint x="97.85000000000002" y="650" as="sourcePoint" />
            <mxPoint x="395" y="650" as="targetPoint" />
          </mxGeometry>
        </mxCell>
        <mxCell id="ftI4ms1ctnyEOGsI6bik-25" value="Display filtered form details" style="html=1;verticalAlign=bottom;endArrow=open;dashed=1;endSize=8;curved=0;rounded=0;" edge="1" parent="1" source="Mf5ZFVlwaRFB3JU3a7bH-111">
          <mxGeometry relative="1" as="geometry">
            <mxPoint x="390" y="680" as="sourcePoint" />
            <mxPoint x="100" y="680" as="targetPoint" />
          </mxGeometry>
        </mxCell>
        <mxCell id="ftI4ms1ctnyEOGsI6bik-26" value="Select form to set as default" style="html=1;verticalAlign=bottom;endArrow=block;curved=0;rounded=0;entryX=-0.238;entryY=0.766;entryDx=0;entryDy=0;entryPerimeter=0;" edge="1" parent="1" source="Mf5ZFVlwaRFB3JU3a7bH-76" target="Mf5ZFVlwaRFB3JU3a7bH-111">
          <mxGeometry width="80" relative="1" as="geometry">
            <mxPoint x="100" y="720" as="sourcePoint" />
            <mxPoint x="387.15" y="720" as="targetPoint" />
          </mxGeometry>
        </mxCell>
      </root>
    </mxGraphModel>
  </diagram>
</mxfile>
